<?xml version="1.0" encoding="UTF-8" standalone="no"?>
<!DOCTYPE svg PUBLIC "-//W3C//DTD SVG 1.1//EN"
 "http://www.w3.org/Graphics/SVG/1.1/DTD/svg11.dtd">
<!-- Generated by graphviz version 12.2.1 (20241206.2353)
 -->
<!-- Title: AraLikeGem5 Pages: 1 -->
<svg width="2595pt" height="1267pt"
 viewBox="0.00 0.00 2594.68 1267.18" xmlns="http://www.w3.org/2000/svg" xmlns:xlink="http://www.w3.org/1999/xlink">
<g id="graph0" class="graph" transform="scale(1 1) rotate(0) translate(21.6 1245.58)">
<title>AraLikeGem5</title>
<polygon fill="white" stroke="none" points="-21.6,21.6 -21.6,-1245.58 2573.08,-1245.58 2573.08,21.6 -21.6,21.6"/>
<text text-anchor="middle" x="1275.74" y="-1200.98" font-family="DejaVu Sans" font-size="20.00">Coprocesador vectorial Ara&#45;like sobre gem5</text>
<text text-anchor="middle" x="1275.74" y="-1173.23" font-family="DejaVu Sans" font-size="20.00">Baseline FIFO: interfaces y organización por lane</text>
<g id="clust1" class="cluster">
<title>cluster_cpu</title>
<path fill="#eaf3fc" stroke="#8fb3d9" d="M20,-634.34C20,-634.34 301.92,-634.34 301.92,-634.34 307.92,-634.34 313.92,-640.34 313.92,-646.34 313.92,-646.34 313.92,-1096.34 313.92,-1096.34 313.92,-1102.34 307.92,-1108.34 301.92,-1108.34 301.92,-1108.34 20,-1108.34 20,-1108.34 14,-1108.34 8,-1102.34 8,-1096.34 8,-1096.34 8,-646.34 8,-646.34 8,-640.34 14,-634.34 20,-634.34"/>
<text text-anchor="middle" x="160.96" y="-1090.09" font-family="DejaVu Sans" font-size="15.00">MinorCPU</text>
</g>
<g id="clust3" class="cluster">
<title>cluster_frontend</title>
<path fill="#eaf7f0" stroke="#88bfa3" d="M566.92,-325.34C566.92,-325.34 875.09,-325.34 875.09,-325.34 881.09,-325.34 887.09,-331.34 887.09,-337.34 887.09,-337.34 887.09,-769.34 887.09,-769.34 887.09,-775.34 881.09,-781.34 875.09,-781.34 875.09,-781.34 566.92,-781.34 566.92,-781.34 560.92,-781.34 554.92,-775.34 554.92,-769.34 554.92,-769.34 554.92,-337.34 554.92,-337.34 554.92,-331.34 560.92,-325.34 566.92,-325.34"/>
<text text-anchor="middle" x="721.01" y="-763.09" font-family="DejaVu Sans" font-size="15.00">Frontend VPU</text>
</g>
<g id="clust5" class="cluster">
<title>cluster_backend</title>
<path fill="#fffaf0" stroke="#d8a85d" d="M1078.59,-194.34C1078.59,-194.34 2490.6,-194.34 2490.6,-194.34 2496.6,-194.34 2502.6,-200.34 2502.6,-206.34 2502.6,-206.34 2502.6,-623.34 2502.6,-623.34 2502.6,-629.34 2496.6,-635.34 2490.6,-635.34 2490.6,-635.34 1078.59,-635.34 1078.59,-635.34 1072.59,-635.34 1066.59,-629.34 1066.59,-623.34 1066.59,-623.34 1066.59,-206.34 1066.59,-206.34 1066.59,-200.34 1072.59,-194.34 1078.59,-194.34"/>
<text text-anchor="middle" x="1784.6" y="-617.09" font-family="DejaVu Sans" font-size="15.00">Backend VPU: ejecución y almacenamiento</text>
</g>
<g id="clust6" class="cluster">
<title>cluster_lanes</title>
<path fill="#fff1d9" stroke="#d8a85d" d="M1098.59,-214.34C1098.59,-214.34 2470.6,-214.34 2470.6,-214.34 2476.6,-214.34 2482.6,-220.34 2482.6,-226.34 2482.6,-226.34 2482.6,-450.34 2482.6,-450.34 2482.6,-456.34 2476.6,-462.34 2470.6,-462.34 2470.6,-462.34 1098.59,-462.34 1098.59,-462.34 1092.59,-462.34 1086.59,-456.34 1086.59,-450.34 1086.59,-450.34 1086.59,-226.34 1086.59,-226.34 1086.59,-220.34 1092.59,-214.34 1098.59,-214.34"/>
<text text-anchor="middle" x="1784.6" y="-444.09" font-family="DejaVu Sans" font-size="15.00">Lane i (replicada N veces, progreso independiente)</text>
</g>
<g id="clust8" class="cluster">
<title>cluster_memory</title>
<path fill="#f5ecfa" stroke="#b38cc5" d="M1612.14,-31.34C1612.14,-31.34 2476.98,-31.34 2476.98,-31.34 2482.98,-31.34 2488.98,-37.34 2488.98,-43.34 2488.98,-43.34 2488.98,-174.34 2488.98,-174.34 2488.98,-180.34 2482.98,-186.34 2476.98,-186.34 2476.98,-186.34 1612.14,-186.34 1612.14,-186.34 1606.14,-186.34 1600.14,-180.34 1600.14,-174.34 1600.14,-174.34 1600.14,-43.34 1600.14,-43.34 1600.14,-37.34 1606.14,-31.34 1612.14,-31.34"/>
<text text-anchor="middle" x="2044.56" y="-168.09" font-family="DejaVu Sans" font-size="15.00">Interfaz con la memoria de gem5</text>
</g>
<!-- decode -->
<g id="node1" class="node">
<title>decode</title>
<path fill="#d7eafb" stroke="#355c7d" stroke-width="1.4" d="M269.17,-1058.85C269.17,-1058.85 52.75,-1058.85 52.75,-1058.85 46.75,-1058.85 40.75,-1052.85 40.75,-1046.85 40.75,-1046.85 40.75,-1001.82 40.75,-1001.82 40.75,-995.82 46.75,-989.82 52.75,-989.82 52.75,-989.82 269.17,-989.82 269.17,-989.82 275.17,-989.82 281.17,-995.82 281.17,-1001.82 281.17,-1001.82 281.17,-1046.85 281.17,-1046.85 281.17,-1052.85 275.17,-1058.85 269.17,-1058.85"/>
<text text-anchor="middle" x="160.96" y="-1038.81" font-family="DejaVu Sans" font-size="12.00" fill="#17202a">Decode</text>
<text text-anchor="middle" x="160.96" y="-1021.56" font-family="DejaVu Sans" font-size="12.00" fill="#17202a">Offload soportado: macro RVV intacta</text>
<text text-anchor="middle" x="160.96" y="-1004.31" font-family="DejaVu Sans" font-size="12.00" fill="#17202a">Offload desactivado: ruta nativa</text>
</g>
<!-- execute -->
<g id="node2" class="node">
<title>execute</title>
<path fill="#d7eafb" stroke="#355c7d" stroke-width="1.4" d="M281.92,-910.1C281.92,-910.1 40,-910.1 40,-910.1 34,-910.1 28,-904.1 28,-898.1 28,-898.1 28,-818.57 28,-818.57 28,-812.57 34,-806.57 40,-806.57 40,-806.57 281.92,-806.57 281.92,-806.57 287.92,-806.57 293.92,-812.57 293.92,-818.57 293.92,-818.57 293.92,-898.1 293.92,-898.1 293.92,-904.1 287.92,-910.1 281.92,-910.1"/>
<text text-anchor="middle" x="160.96" y="-890.06" font-family="DejaVu Sans" font-size="12.00" fill="#17202a">Execute / Commit</text>
<text text-anchor="middle" x="160.96" y="-872.81" font-family="DejaVu Sans" font-size="12.00" fill="#17202a">Dependencias escalares e inFlightInsts</text>
<text text-anchor="middle" x="160.96" y="-855.56" font-family="DejaVu Sans" font-size="12.00" fill="#17202a">vsetvli: configura RVV en CPU</text>
<text text-anchor="middle" x="160.96" y="-838.31" font-family="DejaVu Sans" font-size="12.00" fill="#17202a">Construye VectorCommand RVV 1.0</text>
<text text-anchor="middle" x="160.96" y="-821.06" font-family="DejaVu Sans" font-size="12.00" fill="#17202a">Despacho en Commit; retiro en completed</text>
</g>
<!-- decode&#45;&gt;execute -->
<g id="edge3" class="edge">
<title>decode&#45;&gt;execute</title>
<path fill="none" stroke="#0b4f8a" stroke-width="1.6" d="M160.96,-989.5C160.96,-969.27 160.96,-943.2 160.96,-919.64"/>
<polygon fill="#0b4f8a" stroke="#0b4f8a" stroke-width="1.6" points="163.41,-919.83 160.96,-912.83 158.51,-919.83 163.41,-919.83"/>
<text text-anchor="middle" x="150.84" y="-947.59" font-family="DejaVu Sans" font-size="10.00" fill="#263238">Macro clasificada</text>
</g>
<!-- execute&#45;&gt;decode -->
<!-- cpu_if -->
<g id="node3" class="node">
<title>cpu_if</title>
<path fill="#c9e4fa" stroke="#355c7d" stroke-width="1.4" d="M222.3,-723.85C222.3,-723.85 99.63,-723.85 99.63,-723.85 93.63,-723.85 87.63,-717.85 87.63,-711.85 87.63,-711.85 87.63,-666.82 87.63,-666.82 87.63,-660.82 93.63,-654.82 99.63,-654.82 99.63,-654.82 222.3,-654.82 222.3,-654.82 228.3,-654.82 234.3,-660.82 234.3,-666.82 234.3,-666.82 234.3,-711.85 234.3,-711.85 234.3,-717.85 228.3,-723.85 222.3,-723.85"/>
<text text-anchor="middle" x="160.96" y="-703.81" font-family="DejaVu Sans" font-size="12.00" fill="#17202a">CpuVectorInterface</text>
<text text-anchor="middle" x="160.96" y="-686.56" font-family="DejaVu Sans" font-size="12.00" fill="#17202a">Asigna CommandKey</text>
<text text-anchor="middle" x="160.96" y="-669.31" font-family="DejaVu Sans" font-size="12.00" fill="#17202a">Valida y transporta</text>
</g>
<!-- execute&#45;&gt;cpu_if -->
<g id="edge4" class="edge">
<title>execute&#45;&gt;cpu_if</title>
<path fill="none" stroke="#0b4f8a" stroke-width="1.6" d="M160.96,-796.9C160.96,-775.79 160.96,-752.6 160.96,-733.17"/>
<polygon fill="#0b4f8a" stroke="#0b4f8a" stroke-width="1.6" points="158.51,-796.69 160.96,-803.69 163.41,-796.69 158.51,-796.69"/>
<polygon fill="#0b4f8a" stroke="#0b4f8a" stroke-width="1.6" points="163.41,-733.37 160.96,-726.37 158.51,-733.37 163.41,-733.37"/>
<text text-anchor="middle" x="136.59" y="-777.09" font-family="DejaVu Sans" font-size="10.00" fill="#263238">requestGrant / dispatch</text>
<text text-anchor="middle" x="136.59" y="-762.84" font-family="DejaVu Sans" font-size="10.00" fill="#263238">grant, stall o rejected</text>
<text text-anchor="middle" x="136.59" y="-748.59" font-family="DejaVu Sans" font-size="10.00" fill="#263238">accepted / completed</text>
</g>
<!-- cpu_if&#45;&gt;execute -->
<!-- queue -->
<g id="node4" class="node">
<title>queue</title>
<path fill="#d6f0e2" stroke="#355c7d" stroke-width="1.4" d="M837.47,-732.48C837.47,-732.48 604.55,-732.48 604.55,-732.48 598.55,-732.48 592.55,-726.48 592.55,-720.48 592.55,-720.48 592.55,-658.2 592.55,-658.2 592.55,-652.2 598.55,-646.2 604.55,-646.2 604.55,-646.2 837.47,-646.2 837.47,-646.2 843.47,-646.2 849.47,-652.2 849.47,-658.2 849.47,-658.2 849.47,-720.48 849.47,-720.48 849.47,-726.48 843.47,-732.48 837.47,-732.48"/>
<text text-anchor="middle" x="721.01" y="-712.44" font-family="DejaVu Sans" font-size="12.00" fill="#17202a">Admisión / CommandQueue</text>
<text text-anchor="middle" x="721.01" y="-695.19" font-family="DejaVu Sans" font-size="12.00" fill="#17202a">FIFO única, profundidad configurable</text>
<text text-anchor="middle" x="721.01" y="-677.94" font-family="DejaVu Sans" font-size="12.00" fill="#17202a">Reservas con token y copia del comando</text>
<text text-anchor="middle" x="721.01" y="-660.69" font-family="DejaVu Sans" font-size="12.00" fill="#17202a">accepted tras almacenar el comando</text>
</g>
<!-- cpu_if&#45;&gt;queue -->
<g id="edge14" class="edge">
<title>cpu_if&#45;&gt;queue</title>
<path fill="none" stroke="#0b4f8a" stroke-width="2.2" d="M244.7,-689.34C333.54,-689.34 476.19,-689.34 582.06,-689.34"/>
<polygon fill="#0b4f8a" stroke="#0b4f8a" stroke-width="2.2" points="244.96,-686.89 237.96,-689.34 244.96,-691.79 244.96,-686.89"/>
<polygon fill="#0b4f8a" stroke="#0b4f8a" stroke-width="2.2" points="581.86,-691.79 588.86,-689.34 581.86,-686.89 581.86,-691.79"/>
<text text-anchor="middle" x="434.42" y="-708.34" font-family="DejaVu Sans" font-size="10.00" fill="#263238">requestGrant / dispatch(token, VectorCommand)</text>
<text text-anchor="middle" x="434.42" y="-694.09" font-family="DejaVu Sans" font-size="10.00" fill="#263238">grant, stall o rejected / accepted</text>
</g>
<!-- sequencer -->
<g id="node5" class="node">
<title>sequencer</title>
<path fill="#c6ead6" stroke="#355c7d" stroke-width="1.4" d="M829.22,-566.85C829.22,-566.85 612.8,-566.85 612.8,-566.85 606.8,-566.85 600.8,-560.85 600.8,-554.85 600.8,-554.85 600.8,-509.82 600.8,-509.82 600.8,-503.82 606.8,-497.82 612.8,-497.82 612.8,-497.82 829.22,-497.82 829.22,-497.82 835.22,-497.82 841.22,-503.82 841.22,-509.82 841.22,-509.82 841.22,-554.85 841.22,-554.85 841.22,-560.85 835.22,-566.85 829.22,-566.85"/>
<text text-anchor="middle" x="721.01" y="-546.81" font-family="DejaVu Sans" font-size="12.00" fill="#17202a">AraSequencer</text>
<text text-anchor="middle" x="721.01" y="-529.56" font-family="DejaVu Sans" font-size="12.00" fill="#17202a">Issue en orden: una instrucción activa</text>
<text text-anchor="middle" x="721.01" y="-512.31" font-family="DejaVu Sans" font-size="12.00" fill="#17202a">Agrega tareas antes de completed</text>
</g>
<!-- queue&#45;&gt;sequencer -->
<g id="edge7" class="edge">
<title>queue&#45;&gt;sequencer</title>
<path fill="none" stroke="#19734b" stroke-width="1.6" d="M721.01,-636.54C721.01,-617.04 721.01,-595.16 721.01,-576.5"/>
<polygon fill="#19734b" stroke="#19734b" stroke-width="1.6" points="718.56,-636.47 721.01,-643.47 723.46,-636.47 718.56,-636.47"/>
<polygon fill="#19734b" stroke="#19734b" stroke-width="1.6" points="723.46,-576.6 721.01,-569.6 718.56,-576.6 723.46,-576.6"/>
<text text-anchor="middle" x="703.76" y="-611.28" font-family="DejaVu Sans" font-size="10.00" fill="#263238">VectorCommand en cabeza</text>
<text text-anchor="middle" x="703.76" y="-597.03" font-family="DejaVu Sans" font-size="10.00" fill="#263238">Disponibilidad / avance</text>
</g>
<!-- sequencer&#45;&gt;cpu_if -->
<g id="edge15" class="edge">
<title>sequencer&#45;&gt;cpu_if</title>
<path fill="none" stroke="#536d7a" stroke-width="1.6" stroke-dasharray="5,2" d="M600.5,-565.96C492.86,-596.24 337.53,-639.94 243.53,-666.39"/>
<polygon fill="#536d7a" stroke="#536d7a" stroke-width="1.6" points="243.03,-663.98 236.96,-668.24 244.36,-668.7 243.03,-663.98"/>
<text text-anchor="middle" x="434.42" y="-647.7" font-family="DejaVu Sans" font-size="10.00" fill="#263238">completed(VectorCompletion)</text>
</g>
<!-- sequencer&#45;&gt;queue -->
<!-- distributor -->
<g id="node6" class="node">
<title>distributor</title>
<path fill="#d6f0e2" stroke="#355c7d" stroke-width="1.4" d="M855.09,-414.85C855.09,-414.85 586.92,-414.85 586.92,-414.85 580.92,-414.85 574.92,-408.85 574.92,-402.85 574.92,-402.85 574.92,-357.82 574.92,-357.82 574.92,-351.82 580.92,-345.82 586.92,-345.82 586.92,-345.82 855.09,-345.82 855.09,-345.82 861.09,-345.82 867.09,-351.82 867.09,-357.82 867.09,-357.82 867.09,-402.85 867.09,-402.85 867.09,-408.85 861.09,-414.85 855.09,-414.85"/>
<text text-anchor="middle" x="721.01" y="-394.81" font-family="DejaVu Sans" font-size="12.00" fill="#17202a">TaskDistributor</text>
<text text-anchor="middle" x="721.01" y="-377.56" font-family="DejaVu Sans" font-size="12.00" fill="#17202a">Fragmentos contiguos por palabra</text>
<text text-anchor="middle" x="721.01" y="-360.31" font-family="DejaVu Sans" font-size="12.00" fill="#17202a">Asigna LaneFragmentId y agrega finalizaciones</text>
</g>
<!-- sequencer&#45;&gt;distributor -->
<g id="edge16" class="edge">
<title>sequencer&#45;&gt;distributor</title>
<path fill="none" stroke="#19734b" stroke-width="2.2" d="M721.01,-487.2C721.01,-467.7 721.01,-444.92 721.01,-425.42"/>
<polygon fill="#19734b" stroke="#19734b" stroke-width="2.2" points="718.56,-487.04 721.01,-494.04 723.46,-487.04 718.56,-487.04"/>
<polygon fill="#19734b" stroke="#19734b" stroke-width="2.2" points="723.46,-425.54 721.01,-418.54 718.56,-425.54 723.46,-425.54"/>
<text text-anchor="middle" x="696.63" y="-468.21" font-family="DejaVu Sans" font-size="10.00" fill="#263238">ArithmeticTask</text>
<text text-anchor="middle" x="696.63" y="-453.96" font-family="DejaVu Sans" font-size="10.00" fill="#263238">Descriptor común: UnitTask + TaskKey</text>
<text text-anchor="middle" x="696.63" y="-439.71" font-family="DejaVu Sans" font-size="10.00" fill="#263238">Accepted o Retry / UnitCompletion</text>
</g>
<!-- vlsu -->
<g id="node12" class="node">
<title>vlsu</title>
<path fill="#ead8f3" stroke="#70458a" stroke-width="1.4" d="M1321.14,-586.1C1321.14,-586.1 1115.22,-586.1 1115.22,-586.1 1109.22,-586.1 1103.22,-580.1 1103.22,-574.1 1103.22,-574.1 1103.22,-494.57 1103.22,-494.57 1103.22,-488.57 1109.22,-482.57 1115.22,-482.57 1115.22,-482.57 1321.14,-482.57 1321.14,-482.57 1327.14,-482.57 1333.14,-488.57 1333.14,-494.57 1333.14,-494.57 1333.14,-574.1 1333.14,-574.1 1333.14,-580.1 1327.14,-586.1 1321.14,-586.1"/>
<text text-anchor="middle" x="1218.18" y="-566.06" font-family="DejaVu Sans" font-size="12.00" fill="#17202a">AraVLSU</text>
<text text-anchor="middle" x="1218.18" y="-548.81" font-family="DejaVu Sans" font-size="12.00" fill="#17202a">vle32.v / vse32.v unit&#45;stride</text>
<text text-anchor="middle" x="1218.18" y="-531.56" font-family="DejaVu Sans" font-size="12.00" fill="#17202a">Correlación por TaskKey y requestId</text>
<text text-anchor="middle" x="1218.18" y="-514.31" font-family="DejaVu Sans" font-size="12.00" fill="#17202a">Un elemento de 32 bits en curso</text>
<text text-anchor="middle" x="1218.18" y="-497.06" font-family="DejaVu Sans" font-size="12.00" fill="#17202a">Avanza tras WriteAck / StoreAck</text>
</g>
<!-- sequencer&#45;&gt;vlsu -->
<g id="edge19" class="edge">
<title>sequencer&#45;&gt;vlsu</title>
<path fill="none" stroke="#70458a" stroke-width="2.2" d="M851.45,-532.86C925.93,-533.16 1019.06,-533.54 1092.69,-533.84"/>
<polygon fill="#70458a" stroke="#70458a" stroke-width="2.2" points="851.9,-530.41 844.89,-532.83 851.88,-535.31 851.9,-530.41"/>
<polygon fill="#70458a" stroke="#70458a" stroke-width="2.2" points="1092.61,-536.28 1099.62,-533.86 1092.63,-531.38 1092.61,-536.28"/>
<text text-anchor="middle" x="976.84" y="-566.94" font-family="DejaVu Sans" font-size="10.00" fill="#263238">MemoryTask</text>
<text text-anchor="middle" x="976.84" y="-552.69" font-family="DejaVu Sans" font-size="10.00" fill="#263238">UnitTask + TaskKey</text>
<text text-anchor="middle" x="976.84" y="-538.44" font-family="DejaVu Sans" font-size="10.00" fill="#263238">Accepted o Retry / UnitCompletion</text>
</g>
<!-- distributor&#45;&gt;sequencer -->
<!-- lane -->
<g id="node7" class="node">
<title>lane</title>
<path fill="#ffe6b9" stroke="#355c7d" stroke-width="1.4" d="M1317.76,-412.85C1317.76,-412.85 1118.59,-412.85 1118.59,-412.85 1112.59,-412.85 1106.59,-406.85 1106.59,-400.85 1106.59,-400.85 1106.59,-355.82 1106.59,-355.82 1106.59,-349.82 1112.59,-343.82 1118.59,-343.82 1118.59,-343.82 1317.76,-343.82 1317.76,-343.82 1323.76,-343.82 1329.76,-349.82 1329.76,-355.82 1329.76,-355.82 1329.76,-400.85 1329.76,-400.85 1329.76,-406.85 1323.76,-412.85 1317.76,-412.85"/>
<text text-anchor="middle" x="1218.18" y="-392.81" font-family="DejaVu Sans" font-size="12.00" fill="#17202a">AraLane[i]</text>
<text text-anchor="middle" x="1218.18" y="-375.56" font-family="DejaVu Sans" font-size="12.00" fill="#17202a">Cola de tareas / operand requester</text>
<text text-anchor="middle" x="1218.18" y="-358.31" font-family="DejaVu Sans" font-size="12.00" fill="#17202a">Colas de operandos / writeback</text>
</g>
<!-- distributor&#45;&gt;lane -->
<g id="edge18" class="edge">
<title>distributor&#45;&gt;lane</title>
<path fill="none" stroke="#19734b" stroke-width="1.6" d="M876.57,-379.71C947.69,-379.43 1030.8,-379.09 1097.11,-378.82"/>
<polygon fill="#19734b" stroke="#19734b" stroke-width="1.6" points="876.97,-377.26 869.98,-379.74 876.99,-382.16 876.97,-377.26"/>
<polygon fill="#19734b" stroke="#19734b" stroke-width="1.6" points="1096.94,-381.27 1103.93,-378.8 1096.92,-376.37 1096.94,-381.27"/>
<text text-anchor="middle" x="976.84" y="-398.63" font-family="DejaVu Sans" font-size="10.00" fill="#263238">LaneTask + LaneFragmentKey</text>
<text text-anchor="middle" x="976.84" y="-384.38" font-family="DejaVu Sans" font-size="10.00" fill="#263238">Accepted o Retry / LaneCompletion</text>
</g>
<!-- mapper -->
<g id="node11" class="node">
<title>mapper</title>
<path fill="#fff0d2" stroke="#355c7d" stroke-width="1.4" d="M2441.98,-551.85C2441.98,-551.85 2279.56,-551.85 2279.56,-551.85 2273.56,-551.85 2267.56,-545.85 2267.56,-539.85 2267.56,-539.85 2267.56,-494.82 2267.56,-494.82 2267.56,-488.82 2273.56,-482.82 2279.56,-482.82 2279.56,-482.82 2441.98,-482.82 2441.98,-482.82 2447.98,-482.82 2453.98,-488.82 2453.98,-494.82 2453.98,-494.82 2453.98,-539.85 2453.98,-539.85 2453.98,-545.85 2447.98,-551.85 2441.98,-551.85"/>
<text text-anchor="middle" x="2360.77" y="-531.81" font-family="DejaVu Sans" font-size="12.00" fill="#17202a">AddressMapper</text>
<text text-anchor="middle" x="2360.77" y="-514.56" font-family="DejaVu Sans" font-size="12.00" fill="#17202a">Regla de mapeo compartida</text>
<text text-anchor="middle" x="2360.77" y="-497.31" font-family="DejaVu Sans" font-size="12.00" fill="#17202a">Sin cola ni latencia propia</text>
</g>
<!-- distributor&#45;&gt;mapper -->
<g id="edge17" class="edge">
<title>distributor:n&#45;&gt;mapper:n</title>
<path fill="none" stroke="#a66300" stroke-width="1.6" d="M721.68,-424.99C730.01,-477.33 813.39,-445.1 867.09,-414.85 887.78,-403.19 880.19,-387.83 895.09,-369.34 961.44,-286.97 981.74,-267.5 1066.59,-204.34 1185.93,-115.5 1215.78,-83.09 1358.14,-39.84 1538.34,14.92 2117.45,4.78 2145.06,-21.34 2181.51,-55.83 2147.28,-427.61 2170.06,-472.34 2210.34,-551.44 2350.42,-638.5 2360.22,-561.89"/>
<polygon fill="#a66300" stroke="#a66300" stroke-width="1.6" points="724.14,-425.07 721.18,-418.27 719.26,-425.43 724.14,-425.07"/>
<polygon fill="#a66300" stroke="#a66300" stroke-width="1.6" points="2362.65,-562.4 2360.62,-555.27 2357.76,-562.11 2362.65,-562.4"/>
<text text-anchor="middle" x="1475.14" y="-58.84" font-family="DejaVu Sans" font-size="10.00" fill="#263238">Consulta de reparto</text>
<text text-anchor="middle" x="1475.14" y="-44.59" font-family="DejaVu Sans" font-size="10.00" fill="#263238">Lane propietaria</text>
</g>
<!-- alu -->
<g id="node8" class="node">
<title>alu</title>
<path fill="#ffe6b9" stroke="#355c7d" stroke-width="1.4" d="M1805.81,-303.85C1805.81,-303.85 1702.64,-303.85 1702.64,-303.85 1696.64,-303.85 1690.64,-297.85 1690.64,-291.85 1690.64,-291.85 1690.64,-246.82 1690.64,-246.82 1690.64,-240.82 1696.64,-234.82 1702.64,-234.82 1702.64,-234.82 1805.81,-234.82 1805.81,-234.82 1811.81,-234.82 1817.81,-240.82 1817.81,-246.82 1817.81,-246.82 1817.81,-291.85 1817.81,-291.85 1817.81,-297.85 1811.81,-303.85 1805.81,-303.85"/>
<text text-anchor="middle" x="1754.22" y="-283.81" font-family="DejaVu Sans" font-size="12.00" fill="#17202a">ALU local</text>
<text text-anchor="middle" x="1754.22" y="-266.56" font-family="DejaVu Sans" font-size="12.00" fill="#17202a">vadd.vv / vadd.vx</text>
<text text-anchor="middle" x="1754.22" y="-249.31" font-family="DejaVu Sans" font-size="12.00" fill="#17202a">Enteros de 32 bits</text>
</g>
<!-- lane&#45;&gt;alu -->
<g id="edge8" class="edge">
<title>lane&#45;&gt;alu</title>
<path fill="none" stroke="#a66300" stroke-width="1.6" d="M1295.72,-339.61C1315.62,-330.9 1337.32,-322.56 1358.14,-316.84 1468.3,-286.57 1601.01,-275.58 1681.16,-271.6"/>
<polygon fill="#a66300" stroke="#a66300" stroke-width="1.6" points="1294.92,-337.28 1289.53,-342.37 1296.92,-341.76 1294.92,-337.28"/>
<polygon fill="#a66300" stroke="#a66300" stroke-width="1.6" points="1680.89,-274.07 1687.77,-271.29 1680.66,-269.17 1680.89,-274.07"/>
<text text-anchor="middle" x="1475.14" y="-335.84" font-family="DejaVu Sans" font-size="10.00" fill="#263238">ExecutionBundle + LaneFragmentKey</text>
<text text-anchor="middle" x="1475.14" y="-321.59" font-family="DejaVu Sans" font-size="10.00" fill="#263238">ExecutionResult</text>
</g>
<!-- lrf -->
<g id="node9" class="node">
<title>lrf</title>
<path fill="#ffe6b9" stroke="#355c7d" stroke-width="1.4" d="M1806.93,-412.85C1806.93,-412.85 1701.51,-412.85 1701.51,-412.85 1695.51,-412.85 1689.51,-406.85 1689.51,-400.85 1689.51,-400.85 1689.51,-355.82 1689.51,-355.82 1689.51,-349.82 1695.51,-343.82 1701.51,-343.82 1701.51,-343.82 1806.93,-343.82 1806.93,-343.82 1812.93,-343.82 1818.93,-349.82 1818.93,-355.82 1818.93,-355.82 1818.93,-400.85 1818.93,-400.85 1818.93,-406.85 1812.93,-412.85 1806.93,-412.85"/>
<text text-anchor="middle" x="1754.22" y="-392.81" font-family="DejaVu Sans" font-size="12.00" fill="#17202a">LaneRegisterFile[i]</text>
<text text-anchor="middle" x="1754.22" y="-375.56" font-family="DejaVu Sans" font-size="12.00" fill="#17202a">Slice local del VRF</text>
<text text-anchor="middle" x="1754.22" y="-358.31" font-family="DejaVu Sans" font-size="12.00" fill="#17202a">Acceso y arbitraje</text>
</g>
<!-- lane&#45;&gt;lrf -->
<g id="edge11" class="edge">
<title>lane&#45;&gt;lrf</title>
<path fill="none" stroke="#a66300" stroke-width="1.6" d="M1339.44,-361.33C1345.76,-360.75 1352.02,-360.24 1358.14,-359.84 1461.91,-352.96 1488.3,-353.9 1592.14,-359.84 1620.92,-361.49 1652.46,-364.78 1679.94,-368.13"/>
<polygon fill="#a66300" stroke="#a66300" stroke-width="1.6" points="1339.3,-358.88 1332.57,-362 1339.78,-363.76 1339.3,-358.88"/>
<polygon fill="#a66300" stroke="#a66300" stroke-width="1.6" points="1679.44,-370.54 1686.69,-368.97 1680.04,-365.68 1679.44,-370.54"/>
<text text-anchor="middle" x="1475.14" y="-378.84" font-family="DejaVu Sans" font-size="10.00" fill="#263238">VrfReadRequest / VrfWriteRequest + VrfAccessKey</text>
<text text-anchor="middle" x="1475.14" y="-364.59" font-family="DejaVu Sans" font-size="10.00" fill="#263238">ReadResponse / WriteAck / Retry</text>
</g>
<!-- banks -->
<g id="node10" class="node">
<title>banks</title>
<path fill="#ffe6b9" stroke="#355c7d" stroke-width="1.4" d="M2450.6,-412.85C2450.6,-412.85 2270.93,-412.85 2270.93,-412.85 2264.93,-412.85 2258.93,-406.85 2258.93,-400.85 2258.93,-400.85 2258.93,-355.82 2258.93,-355.82 2258.93,-349.82 2264.93,-343.82 2270.93,-343.82 2270.93,-343.82 2450.6,-343.82 2450.6,-343.82 2456.6,-343.82 2462.6,-349.82 2462.6,-355.82 2462.6,-355.82 2462.6,-400.85 2462.6,-400.85 2462.6,-406.85 2456.6,-412.85 2450.6,-412.85"/>
<text text-anchor="middle" x="2360.77" y="-392.81" font-family="DejaVu Sans" font-size="12.00" fill="#17202a">Bancos locales del VRF</text>
<text text-anchor="middle" x="2360.77" y="-375.56" font-family="DejaVu Sans" font-size="12.00" fill="#17202a">Bancos / puertos configurables</text>
<text text-anchor="middle" x="2360.77" y="-358.31" font-family="DejaVu Sans" font-size="12.00" fill="#17202a">Latencia por banco; sin FIFO</text>
</g>
<!-- lrf&#45;&gt;banks -->
<g id="edge9" class="edge">
<title>lrf&#45;&gt;banks</title>
<path fill="none" stroke="#a66300" stroke-width="1.6" d="M1828.55,-367.96C1855.18,-364.66 1885.54,-361.46 1913.31,-359.84 2016.13,-353.84 2042.15,-355.41 2145.06,-359.84 2178.97,-361.3 2215.81,-364.04 2249.24,-366.98"/>
<polygon fill="#a66300" stroke="#a66300" stroke-width="1.6" points="1828.34,-365.51 1821.7,-368.82 1828.95,-370.37 1828.34,-365.51"/>
<polygon fill="#a66300" stroke="#a66300" stroke-width="1.6" points="2248.97,-369.42 2256.16,-367.6 2249.41,-364.54 2248.97,-369.42"/>
<text text-anchor="middle" x="2029.18" y="-378.84" font-family="DejaVu Sans" font-size="10.00" fill="#263238">Acceso mapeado</text>
<text text-anchor="middle" x="2029.18" y="-364.59" font-family="DejaVu Sans" font-size="10.00" fill="#263238">Datos / ack / retry</text>
</g>
<!-- lrf&#45;&gt;mapper -->
<g id="edge10" class="edge">
<title>lrf&#45;&gt;mapper</title>
<path fill="none" stroke="#a66300" stroke-width="1.6" d="M1828.39,-395.16C1935.77,-419.85 2136.45,-465.99 2258.1,-493.96"/>
<polygon fill="#a66300" stroke="#a66300" stroke-width="1.6" points="1829.08,-392.81 1821.7,-393.62 1827.98,-397.58 1829.08,-392.81"/>
<polygon fill="#a66300" stroke="#a66300" stroke-width="1.6" points="2257.35,-496.3 2264.72,-495.48 2258.45,-491.53 2257.35,-496.3"/>
<text text-anchor="middle" x="2029.18" y="-483.38" font-family="DejaVu Sans" font-size="10.00" fill="#263238">Registro / rango / geometría</text>
<text text-anchor="middle" x="2029.18" y="-469.13" font-family="DejaVu Sans" font-size="10.00" fill="#263238">MappedVrfFragment[]: lane / banco / fila / máscara</text>
</g>
<!-- vlsu&#45;&gt;lrf -->
<g id="edge12" class="edge">
<title>vlsu&#45;&gt;lrf</title>
<path fill="none" stroke="#70458a" stroke-width="1.6" d="M1342.44,-498.33C1447,-467.79 1593.48,-425 1680.33,-399.63"/>
<polygon fill="#70458a" stroke="#70458a" stroke-width="1.6" points="1341.77,-495.97 1335.74,-500.29 1343.14,-500.68 1341.77,-495.97"/>
<polygon fill="#70458a" stroke="#70458a" stroke-width="1.6" points="1680.96,-402 1687,-397.68 1679.59,-397.29 1680.96,-402"/>
<text text-anchor="middle" x="1475.14" y="-525.75" font-family="DejaVu Sans" font-size="10.00" fill="#263238">LoadData &#45;&gt; VrfWriteRequest / VrfReadRequest</text>
<text text-anchor="middle" x="1475.14" y="-511.5" font-family="DejaVu Sans" font-size="10.00" fill="#263238">VrfAccessKey</text>
<text text-anchor="middle" x="1475.14" y="-497.25" font-family="DejaVu Sans" font-size="10.00" fill="#263238">ReadResponse / WriteAck / Retry</text>
</g>
<!-- mem_backend -->
<g id="node13" class="node">
<title>mem_backend</title>
<path fill="#e1c9ee" stroke="#355c7d" stroke-width="1.4" d="M1876.31,-137.48C1876.31,-137.48 1632.14,-137.48 1632.14,-137.48 1626.14,-137.48 1620.14,-131.48 1620.14,-125.48 1620.14,-125.48 1620.14,-63.2 1620.14,-63.2 1620.14,-57.2 1626.14,-51.2 1632.14,-51.2 1632.14,-51.2 1876.31,-51.2 1876.31,-51.2 1882.31,-51.2 1888.31,-57.2 1888.31,-63.2 1888.31,-63.2 1888.31,-125.48 1888.31,-125.48 1888.31,-131.48 1882.31,-137.48 1876.31,-137.48"/>
<text text-anchor="middle" x="1754.22" y="-117.44" font-family="DejaVu Sans" font-size="12.00" fill="#17202a">VectorMemoryBackend</text>
<text text-anchor="middle" x="1754.22" y="-100.19" font-family="DejaVu Sans" font-size="12.00" fill="#17202a">Adaptación a Request / Packet</text>
<text text-anchor="middle" x="1754.22" y="-82.94" font-family="DejaVu Sans" font-size="12.00" fill="#17202a">Traducción, fragmentación física y retry</text>
<text text-anchor="middle" x="1754.22" y="-65.69" font-family="DejaVu Sans" font-size="12.00" fill="#17202a">Una respuesta terminal por petición lógica</text>
</g>
<!-- vlsu&#45;&gt;mem_backend -->
<g id="edge20" class="edge">
<title>vlsu&#45;&gt;mem_backend</title>
<path fill="none" stroke="#70458a" stroke-width="2.2" d="M1331.83,-474.28C1332.27,-473.64 1332.71,-472.99 1333.14,-472.34 1370.89,-414.25 1311.36,-212.69 1358.14,-161.59 1420.5,-93.46 1524.41,-77.9 1610.02,-78.72"/>
<polygon fill="#70458a" stroke="#70458a" stroke-width="2.2" points="1330.01,-472.64 1327.62,-479.66 1333.87,-475.66 1330.01,-472.64"/>
<polygon fill="#70458a" stroke="#70458a" stroke-width="2.2" points="1609.73,-81.16 1616.77,-78.83 1609.82,-76.26 1609.73,-81.16"/>
<text text-anchor="middle" x="1475.14" y="-194.84" font-family="DejaVu Sans" font-size="10.00" fill="#263238">VectorMemoryRequest</text>
<text text-anchor="middle" x="1475.14" y="-180.59" font-family="DejaVu Sans" font-size="10.00" fill="#263238">TaskKey + requestId</text>
<text text-anchor="middle" x="1475.14" y="-166.34" font-family="DejaVu Sans" font-size="10.00" fill="#263238">Accepted o Retry / VectorMemoryResponse</text>
</g>
<!-- gem5_memory -->
<g id="node14" class="node">
<title>gem5_memory</title>
<path fill="#ead8f3" stroke="#355c7d" stroke-width="1.4" d="M2456.98,-130.34C2456.98,-130.34 2264.56,-130.34 2264.56,-130.34 2258.56,-130.34 2252.56,-124.34 2252.56,-118.34 2252.56,-118.34 2252.56,-106.34 2252.56,-106.34 2252.56,-100.34 2258.56,-94.34 2264.56,-94.34 2264.56,-94.34 2456.98,-94.34 2456.98,-94.34 2462.98,-94.34 2468.98,-100.34 2468.98,-106.34 2468.98,-106.34 2468.98,-118.34 2468.98,-118.34 2468.98,-124.34 2462.98,-130.34 2456.98,-130.34"/>
<text text-anchor="middle" x="2360.77" y="-109.56" font-family="DejaVu Sans" font-size="12.00" fill="#17202a">TLB / puertos / memoria de gem5</text>
</g>
<!-- mem_backend&#45;&gt;gem5_memory -->
<g id="edge13" class="edge">
<title>mem_backend&#45;&gt;gem5_memory</title>
<path fill="none" stroke="#70458a" stroke-width="1.6" d="M1898.03,-98.59C2003.22,-101.72 2144.49,-105.93 2242.96,-108.86"/>
<polygon fill="#70458a" stroke="#70458a" stroke-width="1.6" points="1898.13,-96.14 1891.06,-98.38 1897.98,-101.04 1898.13,-96.14"/>
<polygon fill="#70458a" stroke="#70458a" stroke-width="1.6" points="2242.87,-111.31 2249.94,-109.07 2243.01,-106.41 2242.87,-111.31"/>
<text text-anchor="middle" x="2029.18" y="-124.48" font-family="DejaVu Sans" font-size="10.00" fill="#263238">Traducción y Request / Packet</text>
<text text-anchor="middle" x="2029.18" y="-110.23" font-family="DejaVu Sans" font-size="10.00" fill="#263238">Respuestas / faults / retry</text>
</g>
<!-- notes -->
<g id="node15" class="node">
<title>notes</title>
<polygon fill="#f5f6f7" stroke="#aeb7c2" stroke-width="1.4" points="2545.48,-1160.48 2170.06,-1160.48 2170.06,-954.2 2551.48,-954.2 2551.48,-1154.48 2545.48,-1160.48"/>
<polyline fill="none" stroke="#aeb7c2" stroke-width="1.4" points="2545.48,-1160.48 2545.48,-1154.48"/>
<polyline fill="none" stroke="#aeb7c2" stroke-width="1.4" points="2551.48,-1154.48 2545.48,-1154.48"/>
<text text-anchor="start" x="2183.02" y="-1141.39" font-family="DejaVu Sans" font-size="11.00" fill="#17202a">CONVENCIONES Y ALCANCE</text>
<text text-anchor="start" x="2183.02" y="-1125.64" font-family="DejaVu Sans" font-size="11.00" fill="#17202a">Flecha doble: envío y retorno; última línea = retorno.</text>
<text text-anchor="start" x="2183.02" y="-1109.89" font-family="DejaVu Sans" font-size="11.00" fill="#17202a">Lane i y sus bancos se replican N veces; el VRF no es central.</text>
<text text-anchor="start" x="2183.02" y="-1094.14" font-family="DejaVu Sans" font-size="11.00" fill="#17202a">Ruta elegida: VLSU accede al LRF de la lane propietaria.</text>
<text text-anchor="start" x="2183.02" y="-1078.39" font-family="DejaVu Sans" font-size="11.00" fill="#17202a">Comandos: CommandKey; tareas: TaskKey.</text>
<text text-anchor="start" x="2183.02" y="-1062.64" font-family="DejaVu Sans" font-size="11.00" fill="#17202a">Fragmentos: TaskKey + LaneFragmentId.</text>
<text text-anchor="start" x="2183.02" y="-1046.89" font-family="DejaVu Sans" font-size="11.00" fill="#17202a">VRF: TaskKey + requester + accessId.</text>
<text text-anchor="start" x="2183.02" y="-1031.14" font-family="DejaVu Sans" font-size="11.00" fill="#17202a">Memoria: TaskKey + requestId; futuro RequestKey.</text>
<text text-anchor="start" x="2183.02" y="-1015.39" font-family="DejaVu Sans" font-size="11.00" fill="#17202a">Baseline: VectorRegRef y rango de bytes.</text>
<text text-anchor="start" x="2183.02" y="-999.64" font-family="DejaVu Sans" font-size="11.00" fill="#17202a">Con renombramiento: PhysicalRegRef con versión y rango.</text>
<text text-anchor="start" x="2183.02" y="-983.89" font-family="DejaVu Sans" font-size="11.00" fill="#17202a">Sin renombramiento, ROB ni chaining; validación inicial funcional SE.</text>
<text text-anchor="start" x="2183.02" y="-968.14" font-family="DejaVu Sans" font-size="11.00" fill="#17202a">Drain termina el trabajo admitido.</text>
</g>
<!-- gem5_memory&#45;&gt;notes -->
<!-- future -->
<g id="node16" class="node">
<title>future</title>
<polygon fill="#f5f6f7" stroke="#aeb7c2" stroke-width="1.4" stroke-dasharray="5,2" points="2533.48,-874.98 2182.06,-874.98 2182.06,-655.7 2539.48,-655.7 2539.48,-868.98 2533.48,-874.98"/>
<polyline fill="none" stroke="#aeb7c2" stroke-width="1.4" stroke-dasharray="5,2" points="2533.48,-874.98 2533.48,-868.98"/>
<polyline fill="none" stroke="#aeb7c2" stroke-width="1.4" stroke-dasharray="5,2" points="2539.48,-868.98 2533.48,-868.98"/>
<text text-anchor="start" x="2195.02" y="-855.89" font-family="DejaVu Sans" font-size="11.00" fill="#17202a">INTERCONEXIÓN Y AMPLIACIONES</text>
<text text-anchor="start" x="2195.02" y="-840.14" font-family="DejaVu Sans" font-size="11.00" fill="#17202a">AraVLSU puede consultar AddressMapper cuando corresponda.</text>
<text text-anchor="start" x="2195.02" y="-824.39" font-family="DejaVu Sans" font-size="11.00" fill="#17202a">VectorInterconnect: enlace ideal si se necesita transportar datos.</text>
<text text-anchor="start" x="2195.02" y="-808.64" font-family="DejaVu Sans" font-size="11.00" fill="#17202a">Conecta lanes; puede distribuir cargas VLSU a AraLane.</text>
<text text-anchor="start" x="2195.02" y="-792.89" font-family="DejaVu Sans" font-size="11.00" fill="#17202a">En esta vista se usa el acceso directo VLSU&#45;LRF.</text>
<text text-anchor="start" x="2195.02" y="-764.14" font-family="DejaVu Sans" font-size="11.00" fill="#17202a">FUERA DEL PRIMER HITO (sin conexiones activas)</text>
<text text-anchor="start" x="2195.02" y="-748.39" font-family="DejaVu Sans" font-size="11.00" fill="#17202a">Reset activo; memoria solapada.</text>
<text text-anchor="start" x="2195.02" y="-732.64" font-family="DejaVu Sans" font-size="11.00" fill="#17202a">MUL / FPU; SLDU / MASKU; reducciones y permutaciones.</text>
<text text-anchor="start" x="2195.02" y="-716.89" font-family="DejaVu Sans" font-size="11.00" fill="#17202a">Renombramiento al admitir: RAT + free&#45;list + Vector ROB.</text>
<text text-anchor="start" x="2195.02" y="-701.14" font-family="DejaVu Sans" font-size="11.00" fill="#17202a">ROB: retiro ordenado y liberación de versiones; no decide issue.</text>
<text text-anchor="start" x="2195.02" y="-685.39" font-family="DejaVu Sans" font-size="11.00" fill="#17202a">ReadinessTable: bytes para datos y bits para máscaras.</text>
<text text-anchor="start" x="2195.02" y="-669.64" font-family="DejaVu Sans" font-size="11.00" fill="#17202a">Chaining granular y topologías temporizadas: fases posteriores.</text>
</g>
<!-- notes&#45;&gt;future -->
</g>
</svg>
